<svg width="456" height="232" viewBox="0 0 456 232" fill="none" xmlns="http://www.w3.org/2000/svg">
<path d="M386.313 193.668L383.999 197.906L387.866 196.404L389.598 198.701L382.649 199.967L373.986 213.19L370.854 211.174L384.269 190.085L386.313 193.668Z" stroke="#EFEFEF" stroke-linecap="round" stroke-linejoin="round"/>
<path d="M451.263 158.629C444.475 139.596 432.37 133.805 416.883 136.498L383.432 187.557C389.34 202.827 400.516 210.613 417.812 209.688L451.263 158.629Z" fill="url(#paint0_linear)" stroke="#EFEFEF" stroke-linecap="round" stroke-linejoin="round"/>
<path d="M450.938 159.143L416.55 137.007L414.183 140.62L448.571 162.756L450.938 159.143Z" fill="#EFEFEF" stroke="#EFEFEF" stroke-width="0.94" stroke-linecap="round" stroke-linejoin="round"/>
<path d="M420.949 204.918L386.56 182.782L384.193 186.395L418.582 208.531L420.949 204.918Z" fill="#EFEFEF"/>
<path d="M411.564 209.922L408.599 213.742L408.411 209.629L405.59 208.995L407.249 215.803L398.586 229.026L401.709 231.036L415.689 210.311L411.564 209.922Z" stroke="#EFEFEF" stroke-linecap="round" stroke-linejoin="round"/>
<path fill-rule="evenodd" clip-rule="evenodd" d="M388.553 11.5151C388.516 11.5537 388.481 11.5938 388.446 11.6342L388.389 11.7008L388.327 11.7627C388.303 11.7867 388.279 11.811 388.256 11.8356C387.909 12.2051 387.668 12.6438 387.58 13.071C387.492 13.4965 387.565 13.8815 387.782 14.1395C388.402 14.5024 389.398 14.2034 390.133 13.4225C390.169 13.3839 390.205 13.3438 390.24 13.3034L390.297 13.2367L390.359 13.1749C390.383 13.1509 390.407 13.1266 390.43 13.1019C390.777 12.7325 391.017 12.2938 391.106 11.8666C391.194 11.4411 391.12 11.0561 390.904 10.7981C390.284 10.4351 389.287 10.7342 388.553 11.5151ZM387.857 10.8718C389.102 9.5484 390.835 9.04319 391.861 9.73725C392.288 10.1779 392.439 10.8632 392.278 11.6398C392.127 12.3677 391.715 13.1188 391.126 13.7452C391.086 13.7872 391.046 13.8286 391.005 13.8694C390.947 13.9367 390.889 14.0022 390.829 14.0658C389.584 15.3892 387.85 15.8944 386.825 15.2003C386.397 14.7597 386.247 14.0744 386.408 13.2978C386.559 12.5699 386.971 11.8187 387.56 11.1924C387.6 11.1504 387.64 11.109 387.681 11.0682C387.738 11.0009 387.797 10.9354 387.857 10.8718Z" fill="#EFEFEF"/>
<path fill-rule="evenodd" clip-rule="evenodd" d="M370.997 30.1748C370.956 30.2176 370.917 30.2621 370.879 30.3071L370.822 30.3739L370.761 30.436C370.741 30.4561 370.721 30.4764 370.702 30.497C370.352 30.8686 370.111 31.3097 370.024 31.7391C369.938 32.1614 370.012 32.5438 370.227 32.8003C370.847 33.1632 371.843 32.8641 372.578 32.0832C372.614 32.0446 372.65 32.0045 372.685 31.9641L372.741 31.8975L372.804 31.8356C372.828 31.8116 372.851 31.7873 372.875 31.7627C373.222 31.3933 373.462 30.9545 373.551 30.5273C373.639 30.1017 373.565 29.7166 373.349 29.4586C372.728 29.0946 371.732 29.3934 370.997 30.1748ZM370.301 29.5315C371.545 28.2087 373.28 27.7022 374.305 28.398C374.733 28.8386 374.884 29.5239 374.723 30.3005C374.572 31.0284 374.16 31.7796 373.57 32.406C373.531 32.4479 373.491 32.4893 373.45 32.5301C373.392 32.5974 373.334 32.6629 373.274 32.7265C372.029 34.0499 370.295 34.5551 369.27 33.8611C368.845 33.4227 368.694 32.7423 368.851 31.9706C369 31.2396 369.413 30.4838 370.006 29.8537C370.039 29.8186 370.072 29.784 370.106 29.7497C370.169 29.6747 370.234 29.6019 370.301 29.5315Z" fill="#EFEFEF"/>
<path fill-rule="evenodd" clip-rule="evenodd" d="M379.219 20.3118C379.204 20.3273 379.19 20.3429 379.174 20.3597C378.692 20.8852 378.35 21.5069 378.21 22.1103L378.137 22.4235L377.926 22.7217L377.775 22.9354C375.499 26.1531 373.349 29.1924 370.678 32.0309C369.302 33.4938 367.915 34.7669 366.439 35.9229L365.986 36.2772L365.532 36.2837C364.946 36.2921 364.286 36.614 363.76 37.1468C362.812 38.2234 362.63 39.5962 363.359 40.2208L363.389 40.2468L363.416 40.2763C364.046 40.9718 365.373 40.7545 366.393 39.7961C366.869 39.2749 367.157 38.6329 367.167 38.0697L367.174 37.6369L367.484 37.1992C369.087 34.9392 370.876 32.7567 372.799 30.7123C374.803 28.5814 376.967 26.5874 379.23 24.7857L379.64 24.459L380.066 24.419C380.87 24.3435 381.761 23.8624 382.448 23.132C382.458 23.1211 382.469 23.1101 382.479 23.099C383.122 22.3939 383.501 21.5527 383.52 20.7903L383.53 20.367L383.829 19.9384C385.493 17.5599 387.359 15.2665 389.377 13.1221C391.228 11.1539 393.219 9.29867 395.294 7.60805L395.766 7.22373L396.244 7.22214C396.866 7.22006 397.563 6.88284 398.122 6.31667C399.048 5.14136 399.145 3.76456 398.335 3.15782L398.298 3.1302L398.266 3.09768C397.555 2.38317 396.115 2.65524 395.032 3.69937C394.495 4.32765 394.226 5.08865 394.328 5.699L394.411 6.19924L394.022 6.74757C393.036 8.1352 391.952 9.45318 390.707 10.7768C388.146 13.4995 385.384 15.7369 382.461 18.1056C382.295 18.2402 382.128 18.375 381.961 18.5102L381.668 18.959L381.032 19.1482C380.389 19.3393 379.745 19.7526 379.219 20.3118ZM378.523 19.6685C379.285 18.8586 380.219 18.2581 381.152 17.9807C381.177 17.9431 381.205 17.9073 381.236 17.8742C381.267 17.8411 381.301 17.8107 381.338 17.7837C384.403 15.2965 387.365 12.9466 390.011 10.1335C391.115 8.96034 392.164 7.70592 393.142 6.32832C392.974 5.32472 393.431 4.07394 394.337 3.05258L394.337 3.05257C395.983 1.41539 398.17 0.983037 399.26 2.07932C400.49 3.00075 400.316 5.13604 398.867 6.90981C397.967 7.86034 396.804 8.4388 395.786 8.44221C393.772 10.0823 391.86 11.8658 390.073 13.7654C388.127 15.8336 386.331 18.0393 384.717 20.3457C384.691 21.4536 384.128 22.6993 383.192 23.7234C383.176 23.7408 383.16 23.7581 383.144 23.7753C382.147 24.8349 380.872 25.5246 379.703 25.6344C377.509 27.3816 375.428 29.3003 373.495 31.3556C371.639 33.3277 369.92 35.4255 368.365 37.6177C368.365 37.6176 368.365 37.6176 368.365 37.6176L368.365 37.6177C368.349 38.5566 367.862 39.6176 367.054 40.4766C365.465 42.0111 363.391 42.366 362.401 41.2733C361.268 40.3016 361.56 38.1765 363.057 36.5103C363.916 35.6204 365.013 35.0775 365.979 35.0637C367.449 33.9126 368.765 32.6818 369.982 31.3876C372.61 28.5946 374.779 25.5082 377.045 22.3052C377.251 21.4182 377.751 20.5089 378.46 19.7364C378.48 19.7136 378.501 19.691 378.523 19.6685Z" fill="#EFEFEF"/>
<path d="M384.182 28.1443L387.242 24.8917L387.413 25.0492L384.353 28.3018L384.182 28.1443Z" stroke="#EFEFEF" stroke-miterlimit="10"/>
<path fill-rule="evenodd" clip-rule="evenodd" d="M387.853 22.9734L387.853 22.9598L386.971 22.1686L381.554 27.9266L382.431 28.7372L387.853 22.9734ZM389.047 23.0877L382.619 29.9196L381.782 30.0762L380.265 28.6738L380.351 27.8224L386.768 21.0009L387.65 20.866L389.054 22.1254L389.047 23.0877Z" fill="#EFEFEF"/>
<mask id="path-11-inside-1" fill="white">
<path d="M383.723 29.3693L388.443 24.3516L383.723 29.3693ZM388.213 25.108L388.303 25.1916L388.213 25.108ZM389.049 24.9113L384.328 29.929L389.049 24.9113ZM384.558 29.1726L384.468 29.089Z"/>
</mask>
<path d="M384.457 30.0481L389.177 25.0304L387.709 23.6728L382.988 28.6905L384.457 30.0481ZM387.709 23.6728L382.988 28.6905L384.457 30.0481L389.177 25.0304L387.709 23.6728ZM387.528 25.8364L387.618 25.92L388.989 24.4633L388.898 24.3797L387.528 25.8364ZM388.989 24.4633L388.898 24.3797L387.528 25.8364L387.618 25.92L388.989 24.4633ZM388.314 24.2325L383.594 29.2502L385.062 30.6077L389.783 25.5901L388.314 24.2325ZM385.062 30.6077L389.783 25.5901L388.314 24.2325L383.594 29.2502L385.062 30.6077ZM385.243 28.4442L385.153 28.3606L383.783 29.8173L383.873 29.9009L385.243 28.4442Z" fill="#EFEFEF" mask="url(#path-11-inside-1)"/>
<mask id="path-13-inside-2" fill="white">
<path d="M383.507 29.1699L388.227 24.1522L383.507 29.1699ZM387.997 24.9086L388.088 24.9922L387.997 24.9086ZM388.833 24.7119L384.112 29.7295L388.833 24.7119ZM384.343 28.9732L384.252 28.8895Z"/>
</mask>
<path d="M384.241 29.8487L388.962 24.831L387.493 23.4734L382.773 28.4911L384.241 29.8487ZM387.493 23.4734L382.773 28.4911L384.241 29.8487L388.962 24.831L387.493 23.4734ZM387.312 25.6369L387.402 25.7206L388.773 24.2639L388.682 24.1802L387.312 25.6369ZM388.773 24.2639L388.682 24.1802L387.312 25.6369L387.402 25.7206L388.773 24.2639ZM388.098 24.0331L383.378 29.0508L384.847 30.4083L389.567 25.3907L388.098 24.0331ZM384.847 30.4083L389.567 25.3907L388.098 24.0331L383.378 29.0508L384.847 30.4083ZM385.028 28.2448L384.937 28.1612L383.567 29.6179L383.657 29.7015L385.028 28.2448Z" fill="#EFEFEF" mask="url(#path-13-inside-2)"/>
<mask id="path-15-inside-3" fill="white">
<path d="M384.793 21.6756L380.911 25.8017L381.28 26.1427L385.162 22.0166L384.793 21.6756Z"/>
</mask>
<path d="M380.911 25.8017L380.177 25.1229L379.492 25.8513L380.226 26.5301L380.911 25.8017ZM384.793 21.6756L385.478 20.9473L384.744 20.2685L384.059 20.9968L384.793 21.6756ZM385.162 22.0166L385.896 22.6953L386.582 21.967L385.847 21.2882L385.162 22.0166ZM381.28 26.1427L380.595 26.871L381.329 27.5498L382.015 26.8214L381.28 26.1427ZM381.646 26.4805L385.527 22.3544L384.059 20.9968L380.177 25.1229L381.646 26.4805ZM384.108 22.404L384.477 22.7449L385.847 21.2882L385.478 20.9473L384.108 22.404ZM384.428 21.3378L380.546 25.4639L382.015 26.8214L385.896 22.6953L384.428 21.3378ZM381.966 25.4143L381.597 25.0734L380.226 26.5301L380.595 26.871L381.966 25.4143Z" fill="#EFEFEF" mask="url(#path-15-inside-3)"/>
<mask id="path-17-inside-4" fill="white">
<path d="M384.786 21.7661L381.021 25.7678L381.314 26.0379L385.078 22.0363L384.786 21.7661Z"/>
</mask>
<path d="M381.021 25.7678L380.287 25.089L379.602 25.8173L380.336 26.4961L381.021 25.7678ZM384.786 21.7661L385.471 21.0377L384.737 20.3589L384.052 21.0873L384.786 21.7661ZM385.078 22.0363L385.813 22.715L386.498 21.9867L385.764 21.3079L385.078 22.0363ZM381.314 26.0379L380.629 26.7663L381.363 27.4451L382.048 26.7167L381.314 26.0379ZM381.756 26.4465L385.52 22.4449L384.052 21.0873L380.287 25.089L381.756 26.4465ZM384.101 22.4944L384.393 22.7646L385.764 21.3079L385.471 21.0377L384.101 22.4944ZM384.344 21.3575L380.579 25.3592L382.048 26.7167L385.813 22.715L384.344 21.3575ZM381.999 25.3096L381.707 25.0394L380.336 26.4961L380.629 26.7663L381.999 25.3096Z" fill="#EFEFEF" mask="url(#path-17-inside-4)"/>
<mask id="path-19-inside-5" fill="white">
<path d="M393.301 28.3575L387.791 34.2149L388.521 34.8904L394.032 29.033L393.301 28.3575Z"/>
</mask>
<path d="M387.791 34.2149L387.056 33.5361L386.371 34.2645L387.105 34.9432L387.791 34.2149ZM393.301 28.3575L393.986 27.6291L393.252 26.9504L392.567 27.6787L393.301 28.3575ZM394.032 29.033L394.766 29.7117L395.451 28.9834L394.717 28.3046L394.032 29.033ZM388.521 34.8904L387.836 35.6187L388.571 36.2975L389.256 35.5691L388.521 34.8904ZM388.525 34.8937L394.035 29.0363L392.567 27.6787L387.056 33.5361L388.525 34.8937ZM392.616 29.0858L393.347 29.7613L394.717 28.3046L393.986 27.6291L392.616 29.0858ZM393.297 28.3542L387.787 34.2116L389.256 35.5691L394.766 29.7117L393.297 28.3542ZM389.207 34.162L388.476 33.4865L387.105 34.9432L387.836 35.6187L389.207 34.162Z" fill="#EFEFEF" mask="url(#path-19-inside-5)"/>
<mask id="path-21-inside-6" fill="white">
<path d="M393.279 28.4919L387.924 34.1834L388.551 34.7624L393.905 29.0708L393.279 28.4919Z"/>
</mask>
<path d="M387.924 34.1834L387.19 33.5046L386.505 34.233L387.239 34.9118L387.924 34.1834ZM393.279 28.4919L393.964 27.7635L393.229 27.0847L392.544 27.8131L393.279 28.4919ZM393.905 29.0708L394.639 29.7496L395.324 29.0213L394.59 28.3425L393.905 29.0708ZM388.551 34.7624L387.865 35.4907L388.6 36.1695L389.285 35.4412L388.551 34.7624ZM388.659 34.8622L394.013 29.1707L392.544 27.8131L387.19 33.5046L388.659 34.8622ZM392.593 29.2202L393.22 29.7992L394.59 28.3425L393.964 27.7635L392.593 29.2202ZM393.171 28.3921L387.816 34.0836L389.285 35.4412L394.639 29.7496L393.171 28.3921ZM389.236 34.034L388.609 33.4551L387.239 34.9118L387.865 35.4907L389.236 34.034Z" fill="#EFEFEF" mask="url(#path-21-inside-6)"/>
<path d="M379.367 36.3886L395.067 19.7002L397.457 21.9099L381.758 38.5982L379.367 36.3886Z" stroke="#EFEFEF" stroke-miterlimit="10"/>
<path fill-rule="evenodd" clip-rule="evenodd" d="M419.107 37.4255L409.652 28.7217C408.926 28.0507 408.263 26.3116 408.89 24.6453L404.933 20.9874C400.22 24.7441 395.72 28.8928 391.543 33.3324C387.384 37.754 383.536 42.4737 380.095 47.3752C380.739 47.9709 381.977 49.1145 384.072 51.0513C384.669 50.7937 385.338 50.679 386.037 50.7218C386.914 50.7755 387.748 51.077 388.215 51.5085L397.652 60.2316L419.107 37.4255ZM420.78 37.0306L397.373 61.9116L387.24 52.5452C386.544 51.9019 384.565 51.5848 383.559 52.5157C380.059 49.2801 378.729 48.0511 378.561 47.8966C382.239 42.5554 386.363 37.4556 390.847 32.6891C395.348 27.905 400.211 23.4564 405.351 19.4353L410.341 24.0477C409.435 25.1487 409.917 27.0288 410.627 27.685L420.78 37.0306ZM383.561 52.5584C383.554 52.5657 382.292 51.4165 378.521 47.9551C378.534 47.9354 378.547 47.9166 378.561 47.897C378.891 48.206 383.574 52.5441 383.561 52.5584ZM378.561 47.897C378.548 47.8856 378.542 47.8797 378.542 47.8796C378.542 47.8796 378.548 47.8851 378.561 47.8966L378.561 47.897Z" fill="#EFEFEF"/>
<path fill-rule="evenodd" clip-rule="evenodd" d="M419.109 37.424L409.671 28.7009C409.315 28.3716 408.974 27.7849 408.793 27.0758L386.5 50.7734C387.199 50.8871 387.831 51.1538 388.215 51.5085L397.652 60.2316L419.109 37.424ZM420.78 37.0306L397.373 61.9116L387.24 52.5452C386.544 51.9019 384.565 51.5848 383.559 52.5157L410.36 24.027C409.455 25.128 409.937 27.0081 410.647 27.6642L420.78 37.0306Z" fill="#EFEFEF"/>
<path d="M58.1542 38.0814V41.0878C58.1375 41.2133 58.1092 41.3387 58.1064 41.4647C58.0631 42.985 57.8394 44.4963 57.4392 45.9717C56.2982 50.6232 53.7912 54.8963 50.1921 58.3243C48.4503 60.0431 46.4733 61.5461 44.3107 62.7954C40.2215 65.1158 35.5662 66.4549 30.7702 66.6903C27.598 66.8823 24.4134 66.5823 21.3491 65.8027C13.5561 63.6916 7.57398 59.452 3.5935 52.8965C1.78752 49.9279 0.623789 46.6648 0.166796 43.288C0.101187 42.8107 0.055601 42.3313 0 41.854V38.0266C0.0161243 37.9478 0.0361359 37.8689 0.0472561 37.7895C0.168466 36.9153 0.241301 36.0323 0.415888 35.1673C1.37482 30.0253 3.99234 25.2684 7.92759 21.5159C14.781 14.9972 23.1673 12.3632 32.9158 13.3471C35.3813 13.6196 37.793 14.2101 40.08 15.1012C44.8452 16.9029 49.0094 19.8316 52.1519 23.5911C55.2943 27.3506 57.3035 31.8076 57.9763 36.5117C58.0508 37.0331 58.0953 37.558 58.1542 38.0814ZM2.61602 39.9278C2.47146 53.2893 14.5213 64.3293 29.0688 64.3364C32.5621 64.3351 36.0206 63.6972 39.2451 62.4594C42.4696 61.2216 45.3964 59.4084 47.8568 57.1242C50.3172 54.8399 52.2627 52.1299 53.5812 49.1501C54.8997 46.1704 55.5651 42.9797 55.5391 39.7621C55.5131 36.5444 54.7962 33.3633 53.4297 30.4019C52.0632 27.4405 50.0741 24.7575 47.5771 22.5073C45.08 20.257 42.1242 18.4841 38.8801 17.2907C35.636 16.0972 32.1675 15.5068 28.6746 15.5534C14.4802 15.6891 2.49926 26.5237 2.61602 39.9278Z" fill="#EFEFEF"/>
<path d="M25.0132 46.6713C25.5136 46.849 25.9584 47.0298 26.416 47.1624C27.9086 47.6406 29.5117 47.7481 31.0637 47.4739C32.6157 47.1998 34.0619 46.5537 35.2566 45.6009C35.3022 45.5665 35.3461 45.5291 35.3895 45.4918C35.8943 45.0549 35.8943 45.0549 36.4898 45.4109C38.3208 46.5053 40.1673 47.5788 41.9776 48.7019C43.0583 49.3501 43.9949 50.1822 44.7371 51.1536C45.206 51.7302 45.4925 52.4149 45.565 53.1322C45.6375 53.8494 45.4932 54.5712 45.148 55.2176C44.6315 56.3499 43.8132 57.3438 42.7689 58.1075C41.7246 58.8712 40.4881 59.38 39.1737 59.5867C37.6375 59.8609 36.0544 59.8185 34.5381 59.4626C33.0217 59.1068 31.6097 58.4462 30.4032 57.5284C28.9929 56.5358 27.8124 55.2935 26.9311 53.8744C26.0499 52.4553 25.4857 50.8882 25.2718 49.2653C25.1606 48.5268 25.095 47.7801 25.0127 47.04C25.0032 46.9345 25.0132 46.827 25.0132 46.6713Z" fill="#EFEFEF"/>
<path d="M21.616 43.4114C21.1212 43.7433 20.6641 44.0598 20.196 44.362C18.4568 45.4836 16.7276 46.6195 14.9656 47.7099C14.1311 48.2205 13.1923 48.569 12.2067 48.7342C11.422 48.8902 10.6058 48.841 9.84985 48.5923C9.09395 48.3437 8.42854 47.9053 7.92873 47.3268C5.56068 44.8096 5.13254 41.9687 6.51033 38.9275C7.77637 36.1322 10.0927 34.3064 13.0952 33.1576C15.0234 32.4567 17.1043 32.1859 19.1679 32.3674C20.489 32.4516 21.7945 32.6808 23.0567 33.0501C23.2034 33.0931 23.343 33.1525 23.5404 33.2278C22.0194 34.4766 21.0016 36.1624 20.6524 38.0114C20.3031 39.8604 20.6429 41.7638 21.6166 43.4124L21.616 43.4114Z" fill="#EFEFEF"/>
<path d="M38.3419 39.4556C38.2981 38.4054 38.0666 37.3691 37.6569 36.3883C37.1472 35.1718 36.3231 34.0882 35.256 33.2314C34.1888 32.3747 32.9109 31.7706 31.533 31.4716C30.8608 31.3093 30.8614 31.3087 30.8742 30.6665C30.9086 28.9361 30.9431 27.2057 30.9776 25.4753C30.9789 24.2711 31.224 23.0777 31.7004 21.9563C32.5099 20.1249 34.0356 19.3182 36.1134 19.2476C39.8826 19.119 42.9062 21.2363 44.3307 24.2247C45.7608 27.2248 45.579 30.2286 44.2468 33.2145C43.2593 35.4275 41.5562 37.115 39.5713 38.5921C39.1871 38.8748 38.7884 39.1416 38.3419 39.4556Z" fill="#EFEFEF"/>
<path d="M29.3935 32.9743C30.7829 32.9745 32.141 33.3546 33.2956 34.0665C34.4502 34.7784 35.3494 35.7899 35.8793 36.973C36.4092 38.1561 36.5459 39.4574 36.2721 40.7121C35.9982 41.9668 35.3262 43.1184 34.3411 44.0209C33.3561 44.9235 32.1023 45.5364 30.7387 45.7819C29.3751 46.0275 27.9631 45.8947 26.6815 45.4003C25.4 44.9059 24.3066 44.0722 23.5399 43.0049C22.7733 41.9376 22.3678 40.6846 22.375 39.4049C22.3769 38.558 22.5601 37.7198 22.914 36.9382C23.2678 36.1566 23.7855 35.4469 24.4373 34.8497C25.0891 34.2524 25.8624 33.7794 26.7128 33.4576C27.5632 33.1358 28.4741 32.9716 29.3935 32.9743V32.9743ZM31.9917 39.4274C31.9901 38.954 31.8361 38.4917 31.5491 38.0989C31.2622 37.7061 30.8552 37.4006 30.3797 37.2209C29.9042 37.0412 29.3815 36.9955 28.8778 37.0894C28.3741 37.1834 27.9119 37.4128 27.5498 37.7488C27.1877 38.0847 26.9418 38.512 26.8434 38.9767C26.7449 39.4413 26.7983 39.9224 26.9967 40.3591C27.1952 40.7958 27.5297 41.1685 27.9582 41.43C28.3866 41.6916 28.8896 41.8302 29.4035 41.8284C29.7449 41.8282 30.0828 41.7658 30.3979 41.6449C30.7129 41.524 30.9989 41.3469 31.2395 41.1238C31.48 40.9008 31.6703 40.6361 31.7994 40.345C31.9285 40.054 31.9939 39.7423 31.9917 39.4279V39.4274Z" fill="#EFEFEF"/>
<path d="M10.8511 52.7674L11.8203 52.1231C15.2756 56.3 20.2963 59.1412 25.9029 60.0927C25.8373 60.4 25.7917 60.6848 25.7133 60.9634C25.6527 61.178 25.4525 61.1631 25.2746 61.1196C24.1787 60.8527 23.0606 60.6423 21.9941 60.3001C17.687 58.9091 13.9043 56.4076 11.0964 53.0931C11.0408 53.0293 10.9868 52.9642 10.9346 52.898C10.909 52.8668 10.8923 52.834 10.8511 52.7674Z" fill="#EFEFEF"/>
<path d="M52.4973 40.4071C52.4255 43.2779 51.7323 46.1067 50.4585 48.7276C50.3011 49.0646 50.3006 49.0646 49.9303 48.9135C49.188 48.6108 49.1746 48.6062 49.4854 47.9097C50.2033 46.3312 50.7117 44.6786 50.9995 42.9879C51.322 41.1971 51.3595 39.3726 51.1107 37.5719C50.9111 36.2689 50.5858 34.9824 50.2928 33.6928C50.2372 33.4439 50.3156 33.3507 50.5469 33.2734C51.2302 33.0439 51.3609 33.0951 51.5588 33.7036C52.2181 35.8852 52.5342 38.1428 52.4973 40.4071Z" fill="#EFEFEF"/>
<path d="M11.9448 28.5989L11.272 28.1595C11.0463 28.0125 10.994 27.8563 11.1992 27.6474C12.0921 26.7255 12.9178 25.737 13.8769 24.8766C16.9223 22.1546 20.7167 20.2501 24.8509 19.3684C25.5448 19.2148 25.6015 19.2476 25.7082 19.9016C25.7772 20.3261 25.775 20.3343 25.3157 20.4322C21.9763 21.1201 18.8538 22.5073 16.1905 24.4864C14.6831 25.6119 13.3332 26.9054 12.1716 28.3372C12.1071 28.4156 12.0376 28.4919 11.9448 28.5989Z" fill="#EFEFEF"/>
<path d="M13.8892 50.9329L14.7393 50.1995C14.9978 50.4279 15.2475 50.6445 15.4921 50.8653C16.8625 52.1556 18.4164 53.2689 20.1115 54.1748C21.7811 55.061 23.5633 55.7535 25.4175 56.2367C25.9029 56.3555 25.9368 56.4155 25.8156 56.8708C25.6521 57.4853 25.6304 57.4905 24.9955 57.3163C21.9943 56.5298 19.1899 55.2082 16.7415 53.4265C15.9114 52.812 15.1457 52.1221 14.3601 51.4568C14.1904 51.2922 14.0331 51.1171 13.8892 50.9329V50.9329Z" fill="#EFEFEF"/>
<path d="M26.435 23.5732C22.1926 24.7909 18.4159 27.099 15.5488 30.226C15.3776 30.1016 15.2247 29.9915 15.0729 29.8803C14.9211 29.7692 14.7827 29.6658 14.6147 29.5413C14.8121 29.3236 14.9862 29.1167 15.1763 28.9231C17.9841 26.0174 21.5793 23.8505 25.5943 22.6441C26.0119 22.5187 26.0157 22.5161 26.1736 22.8869C26.2643 23.0969 26.3371 23.3135 26.435 23.5732Z" fill="#EFEFEF"/>
<path d="M47.0495 47.4979C46.7565 47.3791 46.4457 47.2695 46.1599 47.1225C46.0943 47.0892 46.0632 46.9176 46.0877 46.8254C46.2934 46.068 46.5408 45.3192 46.7299 44.5581C47.4664 41.5462 47.4455 38.419 46.6687 35.4157C46.6176 35.2108 46.681 35.1084 46.8911 35.05C47.7858 34.798 47.813 34.8651 47.9737 35.5919C48.8616 39.4593 48.6003 43.4757 47.2175 47.2177C47.1952 47.2777 47.1691 47.3371 47.1408 47.3944C47.1135 47.4311 47.0829 47.4657 47.0495 47.4979Z" fill="#EFEFEF"/>
<path fill-rule="evenodd" clip-rule="evenodd" d="M329.396 106.139C328.106 107.576 322.618 102.553 324.217 101.155C330.886 96.8847 336.532 91.2201 340.76 84.5583C342.089 83.1077 348.471 89.4881 346.862 90.8871C340.15 95.1946 333.746 99.2273 329.396 106.139Z" fill="#CCCCCC" stroke="#808080" stroke-width="0.25" stroke-miterlimit="10"/>
<path fill-rule="evenodd" clip-rule="evenodd" d="M319.32 111.328C318.72 110.765 318.239 110.09 317.905 109.341C317.571 108.593 317.39 107.785 317.373 106.967C317.356 106.148 317.504 105.335 317.807 104.573C318.11 103.812 318.563 103.117 319.139 102.531C320.314 101.345 321.914 100.666 323.591 100.641C325.268 100.615 326.888 101.246 328.099 102.396C328.698 102.959 329.179 103.635 329.513 104.383C329.848 105.132 330.028 105.939 330.045 106.758C330.062 107.576 329.915 108.39 329.611 109.151C329.308 109.913 328.856 110.607 328.279 111.194C327.104 112.38 325.504 113.059 323.827 113.084C322.15 113.109 320.531 112.478 319.32 111.328V111.328Z" fill="#CCCCCC" stroke="#808080" stroke-width="0.25" stroke-miterlimit="10"/>
<path fill-rule="evenodd" clip-rule="evenodd" d="M360.74 81.896C360.994 95.9294 339.662 96.3943 339.412 82.2693C339.162 68.1444 360.484 67.8222 360.74 81.896Z" fill="#CCCCCC" stroke="#808080" stroke-width="0.25" stroke-miterlimit="10"/>
<path d="M350.439 90.9545C355.211 90.8695 359.008 86.9208 358.922 82.135C358.835 77.3491 354.896 73.5384 350.124 73.6234C345.353 73.7085 341.555 77.6571 341.641 82.4429C341.728 87.2288 345.667 91.0396 350.439 90.9545Z" fill="#CCCCCC" stroke="#808080" stroke-width="0.25" stroke-miterlimit="10"/>
<path fill-rule="evenodd" clip-rule="evenodd" d="M350.312 76.8707L346.138 79.4613C346.199 81.3427 346.201 82.3867 346.246 84.1881L346.722 84.8445L350.965 86.9937L355.129 84.4038L355.02 79.6769L354.545 79.0306L350.312 76.8707Z" fill="#CCCCCC" stroke="#808080" stroke-width="0.25" stroke-miterlimit="10"/>
<path fill-rule="evenodd" clip-rule="evenodd" d="M354.947 81.6893L354.945 82.5208L354.625 82.1881L346.531 82.2828L346.714 82.26L346.741 81.7816L354.947 81.6893Z" fill="#CCCCCC" stroke="#808080" stroke-width="0.25" stroke-miterlimit="10"/>
<path d="M320.288 114.057C323.251 114.788 326.245 113.025 326.974 110.12C327.703 107.215 325.892 104.268 322.928 103.537C319.964 102.806 316.971 104.569 316.242 107.474C315.513 110.379 317.324 113.327 320.288 114.057Z" fill="#CCCCCC" stroke="#808080" stroke-width="0.25" stroke-miterlimit="10"/>
<path d="M135.647 110.607V76.4754H116.517V110.607H135.647Z" fill="#CCCCCC" stroke="#808080" stroke-width="0.25" stroke-miterlimit="10"/>
<path d="M137.085 115.3V111.629C137.085 111.07 136.628 110.617 136.065 110.617H116.109C115.545 110.617 115.089 111.07 115.089 111.629V115.3C115.089 115.858 115.545 116.311 116.109 116.311H136.065C136.628 116.311 137.085 115.858 137.085 115.3Z" fill="#CCCCCC" stroke="#808080" stroke-width="0.25" stroke-miterlimit="10"/>
<path d="M137.085 75.4742V71.8032C137.085 71.2446 136.628 70.7918 136.065 70.7918H116.109C115.545 70.7918 115.089 71.2446 115.089 71.8032V75.4742C115.089 76.0327 115.545 76.4855 116.109 76.4855H136.065C136.628 76.4855 137.085 76.0327 137.085 75.4742Z" fill="#CCCCCC" stroke="#808080" stroke-width="0.25" stroke-miterlimit="10"/>
<path d="M134.494 87.2459H117.69C116.783 87.2459 116.048 87.9749 116.048 88.8741V97.7635C116.048 98.6628 116.783 99.3918 117.69 99.3918H134.494C135.401 99.3918 136.136 98.6628 136.136 97.7635V88.8741C136.136 87.9749 135.401 87.2459 134.494 87.2459Z" fill="#CCCCCC" stroke="#808080" stroke-width="0.25" stroke-miterlimit="10"/>
<path d="M135.3 86.7605H116.884C116.422 86.7605 116.048 87.1317 116.048 87.5897V98.077C116.048 98.535 116.422 98.9063 116.884 98.9063H135.3C135.762 98.9063 136.136 98.535 136.136 98.077V87.5897C136.136 87.1317 135.762 86.7605 135.3 86.7605Z" fill="#CCCCCC" stroke="#808080" stroke-width="0.25" stroke-miterlimit="10"/>
<path fill-rule="evenodd" clip-rule="evenodd" d="M138.942 97.6725C139.803 95.6678 140.172 93.4896 140.02 91.3162C139.868 89.1427 139.198 87.0359 138.067 85.1683C136.935 83.3006 135.373 81.7252 133.509 80.5711C131.645 79.417 129.531 78.717 127.342 78.5284C127.184 78.212 126.938 77.9474 126.632 77.7666C126.326 77.5858 125.974 77.4965 125.619 77.5093C125.263 77.5221 124.918 77.6366 124.627 77.8389C124.335 78.0412 124.109 78.3228 123.975 78.6497C121.826 78.9857 119.787 79.8163 118.021 81.0747C116.255 82.3331 114.811 83.9844 113.805 85.896C112.799 87.8076 112.259 89.9263 112.229 92.0821C112.198 94.2379 112.678 96.3708 113.629 98.3096C113.49 98.7024 113.49 99.1305 113.629 99.5232C113.741 99.8724 113.955 100.181 114.244 100.41C114.533 100.638 114.883 100.777 115.252 100.808C116.601 102.515 118.338 103.883 120.322 104.8C122.305 105.717 124.479 106.156 126.666 106.084C128.853 106.011 130.992 105.427 132.909 104.38C134.826 103.333 136.466 101.853 137.697 100.059H137.82C138.054 99.9868 138.272 99.8689 138.46 99.7124C138.649 99.556 138.804 99.364 138.917 99.1476C139.03 98.9312 139.098 98.6948 139.118 98.452C139.138 98.2092 139.11 97.9649 139.034 97.7332L138.942 97.6725ZM137.922 92.2721C137.923 93.6922 137.664 95.1007 137.156 96.4286C136.956 96.4235 136.756 96.4509 136.565 96.5095V96.5095C135.8 95.3448 134.758 94.3849 133.53 93.7146C132.302 93.0443 130.927 92.6843 129.525 92.6665C129.533 92.5318 129.533 92.3967 129.525 92.262C129.525 91.3635 129.165 90.5017 128.524 89.8664C127.883 89.231 127.014 88.8741 126.107 88.8741H126.036C125.425 87.6875 125.095 86.3783 125.072 85.0463C125.049 83.7143 125.333 82.3947 125.903 81.1881C126.347 81.1348 126.752 80.9138 127.036 80.5712C130.009 80.798 132.787 82.1293 134.813 84.2988C136.839 86.4682 137.964 89.3159 137.962 92.2721H137.922ZM124.352 80.6724C124.466 80.7822 124.592 80.8774 124.73 80.9555C124.054 82.2171 123.71 83.6272 123.73 85.0555C123.749 86.4838 124.132 87.8841 124.842 89.1269C124.387 89.3123 123.978 89.5929 123.642 89.9495C123.307 90.3061 123.053 90.7302 122.898 91.193C122.743 91.6558 122.69 92.1463 122.744 92.631C122.798 93.1157 122.957 93.5831 123.21 94.0014C122.504 95.067 121.57 95.9661 120.476 96.6353C119.381 97.3046 118.151 97.7276 116.874 97.8748C116.702 97.6369 116.475 97.4431 116.213 97.3094C115.95 97.1758 115.659 97.1061 115.364 97.1062C114.606 95.4565 114.245 93.6553 114.309 91.8439C114.372 90.0326 114.859 88.2605 115.73 86.6669C116.601 85.0733 117.833 83.7017 119.329 82.6598C120.825 81.6179 122.545 80.9342 124.352 80.6622V80.6724ZM126.138 103.993C124.402 103.994 122.688 103.616 121.116 102.885C119.545 102.155 118.156 101.09 117.047 99.7659C117.157 99.5414 117.219 99.2971 117.231 99.0479C118.619 98.9666 119.965 98.55 121.153 97.8343C122.341 97.1186 123.334 96.1256 124.046 94.942C124.44 95.2423 124.895 95.454 125.38 95.5622C125.864 95.6704 126.367 95.6727 126.852 95.5687C127.338 95.4647 127.795 95.2571 128.191 94.9602C128.588 94.6633 128.914 94.2844 129.147 93.8497C130.41 93.9223 131.641 94.2644 132.758 94.8527C133.874 95.4409 134.849 96.2614 135.616 97.2579C135.41 97.5557 135.3 97.9082 135.3 98.2692C135.3 98.6301 135.41 98.9827 135.616 99.2805C134.516 100.744 133.086 101.932 131.44 102.75C129.795 103.568 127.979 103.994 126.138 103.993V103.993Z" fill="#CCCCCC" stroke="#999999" stroke-width="0.25" stroke-miterlimit="10"/>
<path fill-rule="evenodd" clip-rule="evenodd" d="M126.189 89.6933C125.696 89.6913 125.215 89.834 124.804 90.1035C124.394 90.373 124.073 90.7571 123.883 91.2072C123.692 91.6573 123.641 92.1533 123.735 92.6323C123.829 93.1114 124.064 93.552 124.411 93.8985C124.758 94.245 125.2 94.4819 125.683 94.579C126.165 94.6762 126.666 94.6294 127.122 94.4445C127.577 94.2595 127.968 93.9449 128.243 93.5402C128.518 93.1355 128.666 92.659 128.668 92.171C128.669 91.8469 128.606 91.5258 128.482 91.2259C128.359 90.926 128.176 90.6532 127.946 90.4231C127.716 90.1931 127.442 90.0102 127.141 89.885C126.839 89.7597 126.516 89.6946 126.189 89.6933V89.6933Z" fill="#CCCCCC" stroke="#999999" stroke-width="0.25" stroke-miterlimit="10"/>
<path d="M126.275 81.2814C127.338 80.9459 127.925 79.8197 127.587 78.7659C127.248 77.7121 126.112 77.1298 125.049 77.4653C123.986 77.8008 123.398 78.9271 123.737 79.9808C124.075 81.0346 125.212 81.6169 126.275 81.2814Z" fill="#CCCCCC" stroke="#999999" stroke-width="0.25" stroke-miterlimit="10"/>
<path d="M115.984 100.87C117.047 100.534 117.634 99.4077 117.296 98.3541C116.957 97.3004 115.82 96.7185 114.757 97.0544C113.694 97.3902 113.107 98.5167 113.446 99.5703C113.785 100.624 114.921 101.206 115.984 100.87Z" fill="#CCCCCC" stroke="#999999" stroke-width="0.25" stroke-miterlimit="10"/>
<path d="M137.788 100.172C138.851 99.8358 139.438 98.7094 139.099 97.6557C138.76 96.6021 137.624 96.0202 136.561 96.356C135.498 96.6919 134.911 97.8183 135.25 98.872C135.588 99.9257 136.725 100.508 137.788 100.172Z" fill="#CCCCCC" stroke="#999999" stroke-width="0.25" stroke-miterlimit="10"/>
<path d="M126.189 93.4655C126.904 93.4655 127.484 92.8859 127.484 92.171C127.484 91.4561 126.904 90.8765 126.189 90.8765C125.473 90.8765 124.893 91.4561 124.893 92.171C124.893 92.8859 125.473 93.4655 126.189 93.4655Z" fill="#CCCCCC" stroke="#999999" stroke-width="0.25" stroke-miterlimit="10"/>
<path d="M225.183 48.7096L238.335 22.5628L226.885 16.9042L213.733 43.0509L225.183 48.7096Z" fill="#CCCCCC" stroke="#808080" stroke-width="0.25" stroke-miterlimit="10"/>
<path d="M224.427 52.3427L225.453 50.3038C225.775 49.664 225.627 48.9433 225.123 48.6941L213.782 43.0896C213.278 42.8404 212.609 43.157 212.287 43.7968L211.261 45.8358C210.939 46.4756 211.087 47.1963 211.592 47.4455L222.932 53.0499C223.436 53.2992 224.106 52.9825 224.427 52.3427Z" fill="#CCCCCC" stroke="#808080" stroke-width="0.25" stroke-miterlimit="10"/>
<path d="M239.77 21.8401L240.795 19.8012C241.117 19.1614 240.969 18.4407 240.465 18.1915L229.125 12.587C228.621 12.3378 227.951 12.6544 227.629 13.2942L226.604 15.3331C226.282 15.9729 226.43 16.6936 226.934 16.9429L238.274 22.5473C238.778 22.7965 239.448 22.4799 239.77 21.8401Z" fill="#CCCCCC" stroke="#808080" stroke-width="0.25" stroke-miterlimit="10"/>
<path fill-rule="evenodd" clip-rule="evenodd" d="M228.419 42.0496L234.208 44.9105C234.303 44.9699 234.421 44.9801 234.54 44.939C234.658 44.8979 234.767 44.8086 234.844 44.6894L239.762 34.9119C239.814 34.779 239.822 34.6377 239.784 34.5186C239.746 34.3995 239.664 34.3122 239.557 34.2757L233.768 31.4148L228.419 42.0496Z" fill="#CCCCCC" stroke="#999999" stroke-width="0.25" stroke-miterlimit="10"/>
<path d="M240.968 34.9152C239.494 37.8462 237.157 42.4916 235.782 45.2256L238.402 57.8317L237.331 57.4904L234.479 45.2325C236.373 41.4675 237.975 38.2817 239.869 34.5166C240.702 32.86 241.961 32.9181 240.968 34.9152Z" fill="#CCCCCC" stroke="#999999" stroke-width="0.25" stroke-miterlimit="10"/>
<path fill-rule="evenodd" clip-rule="evenodd" d="M231.89 75.8328C231.813 76.1244 231.686 76.4064 231.519 76.6615C231.352 76.9166 231.147 77.1395 230.917 77.3167C230.687 77.4939 230.437 77.6217 230.181 77.6923C229.926 77.7628 229.671 77.7747 229.431 77.7271C229.192 77.6796 228.973 77.5736 228.789 77.4157C228.605 77.2577 228.458 77.0511 228.358 76.8084C228.259 76.5657 228.208 76.292 228.209 76.0039C228.211 75.7158 228.264 75.4194 228.366 75.1327V75.1327L236.82 56.9197C237.257 56.0508 238.685 56.6119 238.769 57.4199L238.78 57.512L231.89 75.8328Z" fill="#CCCCCC" stroke="#999999" stroke-width="0.25" stroke-miterlimit="10"/>
<path fill-rule="evenodd" clip-rule="evenodd" d="M236.617 44.8573L236.07 44.5865L240.417 35.9443L240.964 36.2151C241.129 36.2963 241.431 36.648 241.337 36.8333L237.34 44.7805C237.25 44.9819 236.782 44.9385 236.617 44.8573Z" fill="#CCCCCC" stroke="#999999" stroke-width="0.25" stroke-miterlimit="10"/>
<path fill-rule="evenodd" clip-rule="evenodd" d="M241.123 37.1905C241.15 37.1353 241.186 37.0851 241.228 37.0436C241.271 37.0021 241.319 36.9703 241.37 36.9505L241.78 36.7918C241.858 36.7638 241.937 36.767 242.003 36.8009L243.464 37.5229C243.531 37.5548 243.582 37.6154 243.606 37.6943L243.747 38.1399C243.764 38.1912 243.77 38.249 243.764 38.3087C243.758 38.3683 243.739 38.4282 243.711 38.4836L240.11 45.643C240.082 45.7013 240.044 45.7539 239.999 45.7968C239.954 45.8397 239.902 45.8716 239.849 45.8901L239.387 46.0378C239.312 46.0645 239.237 46.0629 239.172 46.0332L237.842 45.3467C237.782 45.3213 237.735 45.2725 237.707 45.2075L237.474 44.673C237.451 44.6186 237.442 44.5558 237.447 44.4902C237.452 44.4245 237.472 44.3582 237.503 44.2971L241.123 37.1905Z" fill="#CCCCCC" stroke="#999999" stroke-width="0.25" stroke-miterlimit="10"/>
<path fill-rule="evenodd" clip-rule="evenodd" d="M241.224 37.2408L237.629 44.3886C237.609 44.4273 237.597 44.4693 237.594 44.5109C237.591 44.5524 237.597 44.592 237.612 44.6261L237.845 45.1606C237.872 45.1887 237.907 45.2059 237.946 45.2102L239.242 45.851C239.27 45.8836 239.309 45.9026 239.352 45.9052L239.814 45.7574C239.847 45.747 239.88 45.7281 239.908 45.7022C239.937 45.6763 239.962 45.6441 239.98 45.6081L243.593 38.4256C243.611 38.3896 243.622 38.3509 243.625 38.3124C243.629 38.274 243.625 38.2369 243.613 38.2041L243.47 37.7862C243.44 37.7504 243.398 37.7298 243.351 37.7276L241.89 37.0056C241.861 36.9689 241.819 36.9481 241.771 36.9469L241.367 37.0941C241.337 37.1076 241.309 37.1277 241.285 37.153C241.26 37.1782 241.24 37.2081 241.224 37.2408V37.2408Z" fill="#CCCCCC" stroke="#999999" stroke-width="0.25" stroke-miterlimit="10"/>
<path fill-rule="evenodd" clip-rule="evenodd" d="M227.065 47.3253L225.769 46.6845L235.908 26.5271L237.177 27.1543C237.551 27.3393 238.278 28.1613 238.05 28.6131L228.727 47.1487C228.533 47.6024 227.44 47.5103 227.065 47.3253Z" fill="#CCCCCC" stroke="#999999" stroke-width="0.25" stroke-miterlimit="10"/>
<path d="M274.506 203.019L230.438 203.782L230.772 222.741L274.84 221.979L274.506 203.019Z" fill="#CCCCCC" stroke="#808080" stroke-width="0.25" stroke-miterlimit="10"/>
<path d="M280.527 201.489L275.787 201.571C275.066 201.584 274.489 202.046 274.499 202.605L274.847 222.383C274.857 222.942 275.45 223.384 276.171 223.372L280.911 223.29C281.632 223.277 282.208 222.814 282.198 222.256L281.85 202.478C281.84 201.919 281.248 201.477 280.527 201.489Z" fill="#CCCCCC" stroke="#808080" stroke-width="0.25" stroke-miterlimit="10"/>
<path d="M229.107 202.379L224.368 202.461C223.647 202.473 223.07 202.936 223.08 203.494L223.428 223.273C223.438 223.831 224.03 224.274 224.752 224.261L229.491 224.179C230.212 224.167 230.789 223.704 230.779 223.146L230.431 203.367C230.421 202.809 229.829 202.366 229.107 202.379Z" fill="#CCCCCC" stroke="#808080" stroke-width="0.25" stroke-miterlimit="10"/>
<path d="M244.351 204.684L244.644 221.338C244.66 222.237 245.614 222.95 246.775 222.93L258.253 222.731C259.414 222.711 260.342 221.966 260.326 221.067L260.033 204.413C260.017 203.514 259.063 202.801 257.902 202.821L246.425 203.02C245.264 203.04 244.335 203.785 244.351 204.684Z" fill="#CCCCCC" stroke="#808080" stroke-miterlimit="10"/>
<path d="M243.71 203.896L244.032 222.148C244.04 222.606 244.526 222.968 245.117 222.958L258.657 222.724C259.249 222.714 259.721 222.334 259.713 221.876L259.392 203.625C259.384 203.167 258.898 202.804 258.307 202.814L244.766 203.049C244.175 203.059 243.702 203.438 243.71 203.896Z" fill="#CCCCCC" stroke="#808080" stroke-width="0.25" stroke-miterlimit="10"/>
<path fill-rule="evenodd" clip-rule="evenodd" d="M263.142 202.983C263.902 202.384 266.79 204.67 265.86 205.253C262.02 206.969 258.705 209.312 256.146 212.117C255.36 212.717 252.017 209.821 252.96 209.249C256.822 207.523 260.503 205.902 263.142 202.983Z" fill="#CCCCCC" stroke="#808080" stroke-width="0.25" stroke-miterlimit="10"/>
<path fill-rule="evenodd" clip-rule="evenodd" d="M265.673 205.043C261.807 206.773 258.473 209.137 255.908 211.969C255.496 212.28 252.618 209.811 253.148 209.488C257.294 207.626 260.793 206.058 263.394 203.181C263.793 202.851 266.19 204.711 265.673 205.043Z" fill="#CCCCCC" stroke="#808080" stroke-width="0.25" stroke-miterlimit="10"/>
<path fill-rule="evenodd" clip-rule="evenodd" d="M268.866 200.942C269.181 201.2 269.427 201.503 269.589 201.835C269.75 202.168 269.825 202.522 269.808 202.878C269.791 203.234 269.683 203.584 269.491 203.909C269.298 204.233 269.024 204.526 268.686 204.769C267.995 205.258 267.086 205.519 266.154 205.496C265.223 205.472 264.344 205.166 263.707 204.643C263.392 204.385 263.147 204.082 262.985 203.75C262.824 203.417 262.749 203.063 262.766 202.707C262.783 202.351 262.89 202.001 263.083 201.676C263.276 201.351 263.549 201.059 263.888 200.816C264.577 200.324 265.487 200.062 266.42 200.085C267.352 200.109 268.231 200.417 268.866 200.942V200.942Z" fill="#CCCCCC" stroke="#808080" stroke-width="0.25" stroke-miterlimit="10"/>
<path fill-rule="evenodd" clip-rule="evenodd" d="M244.965 212.877C245.276 206.803 257.126 207.033 256.829 213.147C256.532 219.262 244.668 218.992 244.965 212.877Z" fill="#CCCCCC" stroke="#808080" stroke-width="0.25" stroke-miterlimit="10"/>
<path d="M251.111 208.574C247.991 208.503 245.364 210.428 245.244 212.874C245.123 215.32 247.556 217.36 250.676 217.43C253.797 217.501 256.424 215.576 256.544 213.131C256.664 210.685 254.232 208.645 251.111 208.574Z" fill="#CCCCCC" stroke="#808080" stroke-width="0.25" stroke-miterlimit="10"/>
<path d="M250.974 209.153C248.322 209.093 246.089 210.727 245.986 212.804C245.884 214.881 247.951 216.614 250.603 216.675C253.255 216.736 255.488 215.101 255.59 213.024C255.693 210.947 253.626 209.214 250.974 209.153Z" fill="#CCCCCC" stroke="#808080" stroke-width="0.25" stroke-miterlimit="10"/>
<path fill-rule="evenodd" clip-rule="evenodd" d="M250.598 215.267L252.996 214.214L253.078 212.19L252.837 211.901L250.548 210.929L248.15 211.982L248.068 214.006L248.308 214.295L250.598 215.267Z" fill="#CCCCCC" stroke="#808080" stroke-width="0.25" stroke-miterlimit="10"/>
<path fill-rule="evenodd" clip-rule="evenodd" d="M248.182 213.084L248.202 212.719L248.374 212.868L252.87 212.993L252.778 213.004L252.743 213.207L248.182 213.084Z" fill="#CCCCCC" stroke="#808080" stroke-width="0.25" stroke-miterlimit="10"/>
<path d="M268.453 199.733C266.834 199.356 265.119 200.061 264.622 201.308C264.126 202.554 265.036 203.871 266.655 204.248C268.274 204.625 269.989 203.92 270.485 202.673C270.982 201.426 270.072 200.11 268.453 199.733Z" fill="#CCCCCC" stroke="#808080" stroke-width="0.25" stroke-miterlimit="10"/>
<path d="M71.1012 167.908H85.3847V189.075H68.3363C62.6729 189.075 57.2415 186.845 53.2369 182.875C49.2323 178.906 46.9825 173.522 46.9825 167.908V167.908V150.979H68.3363V165.137C68.3323 165.5 68.4008 165.859 68.5379 166.195C68.6751 166.531 68.8781 166.837 69.1352 167.095C69.3924 167.352 69.6985 167.557 70.036 167.697C70.3735 167.836 70.7355 167.908 71.1012 167.908V167.908Z" fill="#CCCCCC" stroke="#808080" stroke-width="0.25" stroke-miterlimit="10"/>
<path d="M90.8022 165.794H86.4355C85.8721 165.794 85.4153 166.247 85.4153 166.806V189.125C85.4153 189.684 85.8721 190.137 86.4355 190.137H90.8022C91.3657 190.137 91.8224 189.684 91.8224 189.125V166.806C91.8224 166.247 91.3657 165.794 90.8022 165.794Z" fill="#CCCCCC" stroke="#808080" stroke-width="0.25" stroke-miterlimit="10"/>
<path d="M45.9113 145.629V149.957C45.9113 150.516 46.368 150.969 46.9315 150.969H69.4484C70.0119 150.969 70.4687 150.516 70.4687 149.957V145.629C70.4687 145.07 70.0119 144.618 69.4484 144.618H46.9315C46.368 144.618 45.9113 145.07 45.9113 145.629Z" fill="#CCCCCC" stroke="#808080" stroke-width="0.25" stroke-miterlimit="10"/>
<defs>
<linearGradient id="paint0_linear" x1="439.458" y1="140.97" x2="397.371" y2="206.352" gradientUnits="userSpaceOnUse">
<stop stop-color="white"/>
<stop offset="1" stop-color="white" stop-opacity="0.29"/>
</linearGradient>
</defs>
</svg>
